<?xml version="1.0" standalone="no"?>
<!DOCTYPE svg PUBLIC "-//W3C//DTD SVG 20010904//EN"
 "http://www.w3.org/TR/2001/REC-SVG-20010904/DTD/svg10.dtd">
<svg version="1.0" xmlns="http://www.w3.org/2000/svg"
 width="300.000000pt" height="300.000000pt" viewBox="0 0 300.000000 300.000000"
 preserveAspectRatio="xMidYMid meet">
<metadata>
Created by potrace 1.10, written by Peter Selinger 2001-2011
</metadata>
<g transform="translate(0.000000,300.000000) scale(0.100000,-0.100000)"
fill="#09db52" stroke="none">
<path d="M930 2534 c-111 -24 -205 -77 -295 -168 -132 -132 -187 -265 -188
-446 0 -294 174 -534 453 -626 48 -16 102 -18 435 -21 l380 -3 -158 154 -157
155 -213 3 c-201 3 -215 4 -261 27 -66 33 -122 91 -155 160 -22 47 -26 70 -26
146 0 78 4 97 28 147 32 65 89 121 156 152 45 20 59 21 576 24 l531 3 154 154
155 155 -675 -1 c-539 0 -688 -3 -740 -15z"/>
<path d="M1329 1796 l154 -155 191 -3 c218 -3 246 -11 331 -89 173 -159 132
-446 -80 -557 l-50 -27 -551 -3 -551 -3 -152 -154 c-83 -85 -151 -157 -151
-160 0 -3 314 -5 698 -3 l697 3 80 27 c295 100 480 366 462 667 -15 269 -191
497 -447 583 -61 21 -87 22 -425 26 l-360 3 154 -155z"/>
</g>
</svg>
